# xmcd
#
# Track frame offsets:
#	150
#	24343
#	44610
#	63782
#	101970
#	121889
#	151388
#	180581
#	222658
#	235159
#	257478
#	277551
#
# Disc length: 3959 seconds
#
# Revision: 1
# Processed by: cddbd v1.5.2PL0 Copyright (c) Steve Scherf et al.
# Submitted via: audiograbber 1.83.01
#
DISCID=9e0f750c
DTITLE=Grateful Dead - 76-07-12 Orpheum Theatre, San Francisco CA
DYEAR=1900
DGENRE=
TTITLE0=The Music Never Stopped
TTITLE1=Brown Eyed Women
TTITLE2=Cassidy
TTITLE3=Tennessee Jed
TTITLE4=Minglewood Blues
TTITLE5=Candyman
TTITLE6=Looks Like Rain
TTITLE7=Row Jimmy
TTITLE8=Lazy Lightning
TTITLE9=Supplication
TTITLE10=Deal
TTITLE11=Promised Land
EXTD=
EXTT0=
EXTT1=
EXTT2=
EXTT3=
EXTT4=
EXTT5=
EXTT6=
EXTT7=
EXTT8=
EXTT9=
EXTT10=
EXTT11=
PLAYORDER=
